<?xml version="1.0" encoding="utf-8"?>
<!-- Generator: Adobe Illustrator 11.0, SVG Export Plug-In  -->
<!DOCTYPE svg PUBLIC "-//W3C//DTD SVG 1.0//EN"    "http://www.w3.org/TR/2001/REC-SVG-20010904/DTD/svg10.dtd" [
	<!ENTITY ns_flows "http://ns.adobe.com/Flows/1.0/">
	<!ENTITY ns_svg "http://www.w3.org/2000/svg">
	<!ENTITY ns_xlink "http://www.w3.org/1999/xlink">
]>
<svg  xmlns="&ns_svg;" xmlns:xlink="&ns_xlink;" xmlns:a="http://ns.adobe.com/AdobeSVGViewerExtensions/3.0/"
	 width="312" height="255" viewBox="30 20 312 255" xml:space="preserve">
	<defs>
	</defs>
	<g>
		<polygon points="53.936,151.495 
		64.16,151.495 
		64.16,72.079 
		53.936,72.079 
		53.936,51.847 
		64.16,51.847 
		64.16,41.695 
		74.312,28.951 
		84.464,41.695 
		84.464,51.847
		104.768,51.847
		104.768,41.695
		114.92,28.951 
		125.072,41.695 
		125.072,51.847 
		145.304,51.847 
		145.304,41.695 
		155.528,28.951 
		165.68,41.695 
		165.68,51.847 
		185.984,51.847
		185.984,41.695 
		196.136,28.951 
		206.288,41.695 
		206.288,51.847 
		226.592,51.847 
		226.592,41.695 
		236.744,28.951 
		246.896,41.695 
		246.896,51.847 
		257.12,51.847 
		257.12,72.079 
		246.896,72.079
		246.896,151.495
		257.12,151.495 
		257.12,171.799 
		246.896,171.799 
		246.896,186.919 
		226.592,186.919 
		226.592,171.799 
		206.288,171.799 
		206.288,186.919 
		185.984,186.919 
		185.984,171.799 
		165.68,171.799 
		165.68,186.919 
		145.304,186.919
		145.304,171.799 
		125.072,171.799 
		125.072,186.919 
		104.768,186.919 
		104.768,171.799 
		84.464,171.799 
		84.464,186.919 
		64.16,186.919 
		64.16,171.799 
		53.936,171.799 "/>
		<rect x="206.288" y="72.079" fill="#FFFFFF" width="20.304" height="79.416"/> 
		<rect x="165.608" y="72.079" fill="#FFFFFF" width="20.376" height="79.416"/> 
		<rect x="125.072" y="72.079" fill="#FFFFFF" width="20.304" height="79.416"/> 
		<rect x="84.392" y="72.079" fill="#FFFFFF" width="20.376" height="79.416"/> 
	</g>
</svg>
